Coordinates
nRows=285
nColumns=2
inDegrees=yes
endheader
time	ankle_angle_r	
2.96069	 -5.175978	
2.99395	 -5.154804	
3.02722	 -5.150071	
3.06048	 -5.157020	
3.09375	 -5.163576	
3.12702	 -5.164161	
3.16028	 -5.153978	
3.19355	 -5.136781	
3.22681	 -5.130613	
3.26008	 -5.143335	
3.29335	 -5.160874	
3.32661	 -5.169116	
3.35988	 -5.169871	
3.39315	 -5.172753	
3.42641	 -5.179669	
3.45968	 -5.184760	
3.49294	 -5.190739	
3.52621	 -5.208137	
3.55948	 -5.233310	
3.59274	 -5.250005	
3.62601	 -5.252942	
3.65927	 -5.248750	
3.69254	 -5.243532	
3.72581	 -5.241378	
3.75907	 -5.243498	
3.79234	 -5.247807	
3.8256	 -5.251151	
3.85887	 -5.249598	
3.89214	 -5.243513	
3.9254	 -5.240027	
3.95867	 -5.243935	
3.99194	 -5.252912	
4.0252	 -5.261740	
4.05847	 -5.265458	
4.09173	 -5.263170	
4.125	 -5.259117	
4.15827	 -5.256815	
4.19153	 -5.257383	
4.2248	 -5.261465	
4.25806	 -5.267282	
4.29133	 -5.272598	
4.3246	 -5.276211	
4.35786	 -5.272557	
4.39113	 -5.256486	
4.4244	 -5.234022	
4.45766	 -5.216565	
4.49093	 -5.208727	
4.52419	 -5.207160	
4.55746	 -5.206467	
4.59073	 -5.204042	
4.62399	 -5.199905	
4.65726	 -5.194675	
4.69052	 -5.187471	
4.72379	 -5.176079	
4.75706	 -5.163120	
4.79032	 -5.156829	
4.82359	 -5.160079	
4.85685	 -5.167445	
4.89012	 -5.177540	
4.92339	 -5.191630	
4.95665	 -5.200694	
4.98992	 -5.194101	
5.02319	 -5.173010	
5.05645	 -5.148509	
5.08972	 -5.136803	
5.12298	 -5.144283	
5.15625	 -5.155877	
5.18952	 -5.158978	
5.22278	 -5.164307	
5.25605	 -5.182351	
5.28931	 -5.202978	
5.32258	 -5.209369	
5.35585	 -5.194212	
5.38911	 -5.164596	
5.42238	 -5.138661	
5.45565	 -5.131090	
5.48891	 -5.141791	
5.52218	 -5.160243	
5.55544	 -5.174703	
5.58871	 -5.182444	
5.62198	 -5.188869	
5.65524	 -5.191696	
5.68851	 -5.187408	
5.72177	 -5.185941	
5.75504	 -5.195182	
5.78831	 -5.205596	
5.82157	 -5.201994	
5.85484	 -5.185481	
5.8881	 -5.174488	
5.92137	 -5.178081	
5.95464	 -5.185084	
5.9879	 -5.187055	
6.02117	 -5.189981	
6.05444	 -5.198742	
6.0877	 -5.212125	
6.12097	 -5.228620	
6.15423	 -5.239461	
6.1875	 -5.233537	
6.22077	 -5.216417	
6.25403	 -5.204231	
6.2873	 -5.204085	
6.32056	 -5.211235	
6.35383	 -5.218543	
6.3871	 -5.226397	
6.42036	 -5.238614	
6.45363	 -5.251205	
6.4869	 -5.258661	
6.52016	 -5.263544	
6.55343	 -5.268527	
6.58669	 -5.270001	
6.61996	 -5.265263	
6.65323	 -5.258000	
6.68649	 -5.255187	
6.71976	 -5.259613	
6.75302	 -5.266231	
6.78629	 -5.269034	
6.81956	 -5.267242	
6.85282	 -5.263158	
6.88609	 -5.260171	
6.91935	 -5.260419	
6.95262	 -5.263318	
6.98589	 -5.268837	
7.01915	 -5.276153	
7.05242	 -5.281710	
7.08569	 -5.284051	
7.11895	 -5.283608	
7.15222	 -5.278518	
7.18548	 -5.268328	
7.21875	 -5.258050	
7.25202	 -5.254074	
7.28528	 -5.259277	
7.31855	 -5.269769	
7.35181	 -5.275607	
7.38508	 -5.271468	
7.41835	 -5.262498	
7.45161	 -5.255486	
7.48488	 -5.252785	
7.51815	 -5.254729	
7.55141	 -5.259786	
7.58468	 -5.262605	
7.61794	 -5.256640	
7.65121	 -5.242304	
7.68448	 -5.228052	
7.71774	 -5.218431	
7.75101	 -5.209323	
7.78427	 -5.196791	
7.81754	 -5.181380	
7.85081	 -5.165962	
7.88407	 -5.155129	
7.91734	 -5.152542	
7.9506	 -5.158822	
7.98387	 -5.173221	
8.01714	 -5.191222	
8.0504	 -5.201854	
8.08367	 -5.194918	
8.11694	 -5.174321	
8.1502	 -5.159816	
8.18347	 -5.166438	
8.21673	 -5.183811	
8.25	 -5.186325	
8.28327	 -5.168763	
8.31653	 -5.155894	
8.3498	 -5.163200	
8.38306	 -5.173932	
8.41633	 -5.169181	
8.4496	 -5.152796	
8.48286	 -5.138328	
8.51613	 -5.133270	
8.5494	 -5.139570	
8.58266	 -5.152595	
8.61593	 -5.160809	
8.64919	 -5.158423	
8.68246	 -5.151884	
8.71573	 -5.149262	
8.74899	 -5.152615	
8.78226	 -5.160625	
8.81552	 -5.169909	
8.84879	 -5.175139	
8.88206	 -5.175413	
8.91532	 -5.175976	
8.94859	 -5.178276	
8.98185	 -5.176305	
9.01512	 -5.166635	
9.04839	 -5.156789	
9.08165	 -5.157333	
9.11492	 -5.166494	
9.14819	 -5.172705	
9.18145	 -5.172582	
9.21472	 -5.174322	
9.24798	 -5.182822	
9.28125	 -5.192971	
9.31452	 -5.199956	
9.34778	 -5.205218	
9.38105	 -5.208766	
9.41431	 -5.205216	
9.44758	 -5.188916	
9.48085	 -5.163462	
9.51411	 -5.144649	
9.54738	 -5.142683	
9.58065	 -5.152151	
9.61391	 -5.166498	
9.64718	 -5.181260	
9.68044	 -5.187848	
9.71371	 -5.181269	
9.74698	 -5.167218	
9.78024	 -5.160384	
9.81351	 -5.172475	
9.84677	 -5.194183	
9.88004	 -5.204622	
9.91331	 -5.198555	
9.94657	 -5.185356	
9.97984	 -5.174685	
10.0131	 -5.176095	
10.0464	 -5.195474	
10.0796	 -5.223406	
10.1129	 -5.241001	
10.1462	 -5.244733	
10.1794	 -5.249146	
10.2127	 -5.259936	
10.246	 -5.265878	
10.2792	 -5.259240	
10.3125	 -5.246629	
10.3458	 -5.240804	
10.379	 -5.248890	
10.4123	 -5.265350	
10.4456	 -5.276589	
10.4788	 -5.275885	
10.5121	 -5.269090	
10.5454	 -5.263514	
10.5786	 -5.260842	
10.6119	 -5.260679	
10.6452	 -5.262063	
10.6784	 -5.263983	
10.7117	 -5.266130	
10.745	 -5.266877	
10.7782	 -5.264824	
10.8115	 -5.262040	
10.8448	 -5.260985	
10.878	 -5.261309	
10.9113	 -5.260400	
10.9446	 -5.255141	
10.9778	 -5.246229	
11.0111	 -5.238678	
11.0444	 -5.235644	
11.0776	 -5.234779	
11.1109	 -5.231093	
11.1442	 -5.221045	
11.1774	 -5.206608	
11.2107	 -5.196332	
11.244	 -5.192751	
11.2772	 -5.186751	
11.3105	 -5.175011	
11.3437	 -5.165241	
11.377	 -5.162821	
11.4103	 -5.167853	
11.4435	 -5.176437	
11.4768	 -5.178726	
11.5101	 -5.169185	
11.5433	 -5.155030	
11.5766	 -5.145211	
11.6099	 -5.140697	
11.6431	 -5.137171	
11.6764	 -5.132082	
11.7097	 -5.128283	
11.7429	 -5.127765	
11.7762	 -5.127212	
11.8095	 -5.122003	
11.8427	 -5.110305	
11.876	 -5.100039	
11.9093	 -5.105383	
11.9425	 -5.126800	
11.9758	 -5.151270	
12.0091	 -5.169113	
12.0423	 -5.174392	
12.0756	 -5.165931	
12.1089	 -5.154428	
12.1421	 -5.151269	
12.1754	 -5.154760	
12.2087	 -5.154395	
12.2419	 -5.143894	
12.2752	 -5.134349	
12.3085	 -5.142466	
12.3417	 -5.157514	
12.375	 -5.149064	
12.4083	 -5.111243	
